<?xml version="1.0" encoding="utf-8"?>
<!-- Generator: Adobe Illustrator 19.0.0, SVG Export Plug-In . SVG Version: 6.00 Build 0)  -->
<svg version="1.1" id="圖層_1" xmlns="http://www.w3.org/2000/svg" xmlns:xlink="http://www.w3.org/1999/xlink" x="0px" y="0px"
	 viewBox="0 0 310 54" style="enable-background:new 0 0 310 54;" xml:space="preserve">
<style type="text/css">
	.st0{fill:#FF6900;}
	.st1{stroke:#000000;stroke-miterlimit:10;}
	.st2{fill:#FFFFFF;stroke:#FF6900;stroke-miterlimit:10;}
	.st3{fill:#FFFFFF;}
</style>
<g id="XMLID_34_">
	<polygon id="XMLID_66_" points="4,41.2 8.6,15.4 16.6,15.4 12.1,41.2 	"/>
	<path id="XMLID_64_" d="M21.8,23.6c0-3.2-0.1-6-0.2-8.2h7l0.4,3.5H29c1.1-1.6,3.7-4.1,8-4.1c5.3,0,9.2,3.5,9.2,11.1v15.3h-8V26.9
		c0-3.3-1.2-5.6-4.1-5.6c-2.2,0-3.5,1.5-4.1,3c-0.2,0.5-0.3,1.3-0.3,2v14.9h-8V23.6z"/>
	<path id="XMLID_62_" d="M53.6,41.2V21.3h-3.4v-5.9h3.4v-1c0-3.1,1-6.5,3.3-8.7c2-1.9,4.8-2.6,7.1-2.6c1.8,0,3.4,0.3,4.4,0.6
		l-0.8,6.1c-0.7-0.3-1.4-0.4-2.3-0.4c-2.6,0-3.6,1.9-3.6,4.6v1.3h5.2v5.9h-5.1v19.9H53.6z"/>
	<path id="XMLID_59_" d="M95.6,28.2c0,9.7-7.4,13.5-13.8,13.5c-7.3,0-13.1-5-13.1-13.5c0-8.7,6.2-13.5,13.8-13.5
		C90.2,14.8,95.6,19.9,95.6,28.2z M77,28.3c0,4.1,1.6,7.7,5.2,7.7c3.5,0,5.2-3.5,5.2-7.7c0-3.7-1.2-7.9-5.2-7.9S77,24.7,77,28.3z"/>
	<path id="XMLID_57_" class="st0" d="M101.7,26.6c0-4.8-0.2-8.8-0.3-12.2h10l0.5,5.2h0.2c1.6-2.4,5-6,11.6-6c4.9,0,8.8,2.5,10.5,6.5
		h0.2c1.4-2,3.1-3.5,4.9-4.6c2.1-1.2,4.4-1.9,7.3-1.9c7.3,0,12.9,5.2,12.9,16.5v22.5h-11.6V31.9c0-5.5-1.8-8.7-5.6-8.7
		c-2.7,0-4.7,1.9-5.5,4.1c-0.3,0.9-0.5,2.1-0.5,3v22.3h-11.6V31.2c0-4.8-1.7-8.1-5.5-8.1c-3,0-4.8,2.3-5.5,4.3c-0.4,0.9-0.5,2-0.5,3
		v22.2h-11.6V26.6z"/>
	<path id="XMLID_54_" class="st0" d="M178,37.3c0.4,4.9,5.2,7.3,10.8,7.3c4.1,0,7.3-0.5,10.5-1.6l1.6,8c-3.9,1.6-8.7,2.4-13.8,2.4
		c-13,0-20.4-7.6-20.4-19.5c0-9.7,6-20.4,19.3-20.4c12.3,0,17,9.6,17,19c0,2-0.2,3.8-0.4,4.7H178z M191.9,29.2
		c0-2.9-1.2-7.7-6.7-7.7c-5,0-7,4.5-7.3,7.7H191.9z"/>
	<path id="XMLID_52_" class="st0" d="M223.3,3.5v10.9h8.5v8.7h-8.5V37c0,4.6,1.1,6.7,4.7,6.7c1.5,0,2.7-0.2,3.5-0.3l0.1,9
		c-1.6,0.6-4.4,1.1-7.7,1.1c-3.8,0-7-1.4-8.9-3.4c-2.2-2.3-3.3-5.9-3.3-11.3V23.2h-5.1v-8.7h5.1V6.2L223.3,3.5z"/>
	<path id="XMLID_50_" class="st0" d="M238.7,27c0-5.6-0.2-9.3-0.3-12.6h10.2l0.4,7h0.3c2-5.5,6.6-7.9,10.3-7.9c1.1,0,1.6,0,2.5,0.2
		V25c-0.9-0.2-1.9-0.4-3.2-0.4c-4.4,0-7.3,2.3-8.1,6c-0.2,0.8-0.2,1.7-0.2,2.7v19.4h-11.9V27z"/>
	<path id="XMLID_47_" class="st0" d="M305.4,33.5c0,14.3-10.9,20-20.4,20c-10.8,0-19.4-7.4-19.4-19.9c0-12.9,9.1-20,20.4-20
		C297.4,13.6,305.4,21.2,305.4,33.5z M277.8,33.7c0,6.1,2.4,11.3,7.7,11.3c5.2,0,7.7-5.2,7.7-11.3c0-5.5-1.8-11.6-7.7-11.6
		C279.7,22,277.8,28.3,277.8,33.7z"/>
	<rect id="XMLID_46_" x="3.4" y="44.6" class="st1" width="23.4" height="8"/>
	<rect id="XMLID_45_" x="26.7" y="44.6" class="st2" width="23.4" height="8"/>
	<rect id="XMLID_44_" x="50.1" y="44.6" class="st1" width="23.4" height="8"/>
	<rect id="XMLID_43_" x="73.5" y="44.6" class="st2" width="23.4" height="8"/>
	<g id="XMLID_35_">
		<g id="XMLID_38_">
			<circle id="XMLID_42_" class="st3" cx="13" cy="11.3" r="7"/>
			<path id="XMLID_39_" d="M13,19.4c-4.5,0-8.1-3.7-8.1-8.1S8.6,3.1,13,3.1c4.5,0,8.1,3.7,8.1,8.1S17.5,19.4,13,19.4z M13,5.4
				c-3.2,0-5.9,2.6-5.9,5.9s2.6,5.9,5.9,5.9c3.2,0,5.9-2.6,5.9-5.9S16.3,5.4,13,5.4z"/>
		</g>
		<g id="XMLID_36_">
			<circle id="XMLID_37_" cx="13" cy="11.3" r="4.3"/>
		</g>
	</g>
</g>
<g id="XMLID_2_">
	<path id="XMLID_26_" d="M80.5,4l0.6,1.1c-0.9,0.5-1.9,1-3.2,1.3l-0.7-1.3C78.5,4.9,79.6,4.5,80.5,4z M82.5,1.8L83.9,2
		c-0.1,0.2-0.2,0.3-0.3,0.5h4.5c-0.1,1-0.3,1.8-0.6,2.6l-1.4-0.7c0.2-0.2,0.3-0.5,0.4-0.8h-1.1c-0.1,0.3-0.3,0.5-0.4,0.7
		c1.1,0.4,2.3,0.9,3.4,1.5l-1,1.2c-0.1-0.1-0.2-0.1-0.3-0.2v4.3h-1.8c0.9,0.1,2,0.3,3.2,0.5L88,12.9c-1.4-0.4-2.8-0.6-4.1-0.8
		l0.4-0.9h-2.9l0.4,0.9c-1,0.4-2.3,0.7-4,0.8l-0.4-1.3c1.1,0,2.3-0.2,3.5-0.4h-2.2V6.3h2.6l-0.4-0.8c0.9-0.2,1.7-0.5,2.2-1
		c0.3-0.2,0.6-0.5,0.8-0.9h-1.1c-0.3,0.4-0.7,0.7-1,1l-1.3-0.9C81.4,3.3,82,2.6,82.5,1.8z M78.4,2c0.7,0.1,1.5,0.4,2.5,0.7L80.2,4
		c-0.9-0.4-1.8-0.8-2.6-1L78.4,2z M80.2,7.8h5.2V7.3h-5.2V7.8z M80.2,9h5.2V8.5h-5.2V9z M85.5,10.2V9.7h-5.2v0.4H85.5z M84.2,5.3
		c-0.1,0.1-0.2,0.2-0.3,0.3c-0.3,0.3-0.7,0.5-1.1,0.7h3.5C85.6,6,84.9,5.6,84.2,5.3z"/>
	<path id="XMLID_20_" d="M93.9,2.4h5.2C99,5.5,99,7.3,99,7.7c0,2.1,0.1,3.2,0.3,3.2c0,0,0.1,0,0.1-0.1c0.1-0.1,0.1-0.8,0.2-2.1
		l1,0.6c-0.1,1.2-0.3,2.2-0.6,2.7c-0.2,0.4-0.5,0.7-0.8,0.7c-0.4,0-0.8-0.2-1-0.7c-0.4-0.5-0.6-2-0.6-4.4V3.8h-1.2v2.7h1v1.4h-1v4.8
		h-1.4V7.9h-1V6.5h1V3.8h-0.8v0.6h-4.7V3.1H91c-0.1-0.4-0.2-0.7-0.3-1l1.8-0.1c0.1,0.4,0.1,0.8,0.2,1.2h1.3V2.4z M89.8,4.9h3.8v1.2
		h-3.8V4.9z M89.8,6.7h3.8v1.2h-3.8V6.7z M93.7,8.5v4.1h-1.4v-0.5h-1v0.6h-1.4V8.5H93.7z M91.2,11h1V9.7h-1V11z"/>
	<path id="XMLID_18_" class="st0" d="M101.4,4.7h1.1V2h1.4v2.6h1v1.2l0.6-0.2V3h1.5v2.3l1-0.3V1.8h1.4v2.8l2.7-0.8l0,3.2
		c0,1-0.1,1.7-0.4,1.9c-0.3,0.3-0.7,0.4-1.3,0.4h-0.7l-0.2-1.5c0.5,0,0.7,0,0.8,0c0.1,0,0.1,0,0.2-0.1c0.1-0.1,0.1-0.4,0.1-1l0-1.1
		L109.4,6v4.2H108V6.4l-1,0.3v4.2c0,0.3,0.1,0.4,0.3,0.4h3c0.2,0,0.3-0.1,0.4-0.2c0.1-0.1,0.1-0.6,0.2-1.6l1.4,0.3
		c-0.1,1.2-0.3,2-0.5,2.4c-0.2,0.3-0.6,0.4-1.1,0.4h-4.1c-0.7,0-1-0.5-1-1.4V7.1l-0.8,0.2l-0.1-1.2H104v3c0.4-0.1,0.7-0.3,1-0.4v1.6
		c-1,0.5-2.1,0.8-3.4,1.2l-0.3-1.7c0.4-0.1,0.8-0.2,1.2-0.3V6.1h-1.1V4.7z"/>
	<path id="XMLID_9_" class="st0" d="M115.8,1.8h0.4c0.5,0.5,1,0.9,1.4,1.4V2.4h1.1V1.8h1.3v0.6h1.1v1h-1.1V4h1.4c0-0.7,0-1.4,0-2.1
		h1.3c0,0.8,0,1.5,0,2.1h1.8v1.2h-1.8c0,1.1,0.1,2,0.1,2.7c0.2-0.7,0.4-1.6,0.5-2.5l1.1,0.6c-0.2,1.3-0.6,2.6-1.1,3.7
		c-0.1,0.1-0.1,0.2-0.2,0.4c0.1,0.6,0.2,1,0.3,1c0,0,0.1-0.2,0.1-0.5l0.1-0.8l1.1,0.7c-0.2,1-0.4,1.7-0.7,2.1
		c-0.2,0.3-0.3,0.4-0.6,0.4c-0.3,0-0.6-0.3-0.9-0.8c-0.1-0.2-0.2-0.4-0.3-0.6c-0.3,0.4-0.6,0.8-0.9,1.1l-0.9-0.7
		c-0.8,0.2-1.8,0.3-2.7,0.4l-0.2-1.3c0.5,0,0.9-0.1,1.3-0.1v-0.6h-1v-1h1V8.9h-1.2v-1h3.5v1H120v0.4h1v1h-1v0.5
		c0.4-0.1,0.7-0.1,1-0.2v0.3c0.3-0.3,0.5-0.6,0.7-1c0-0.2-0.1-0.3-0.1-0.5c-0.2-0.9-0.3-2.4-0.3-4.3h-4V4.3L117,4.7h0.1v1.2h-0.9
		v0.8h1.3v1.2h-1.3v2.9c0.4-0.1,0.8-0.3,1.2-0.4v1.3c-1.1,0.4-2.3,0.8-3.7,1l-0.2-1.4c0.5,0,1-0.1,1.5-0.2V7.9h-1.4V6.7h1.4V5.9
		h-0.7V5.4c-0.1,0.1-0.3,0.2-0.4,0.4L113.4,4c0.7-0.6,1.3-1.3,1.8-2.2H115.8z M114.4,8.3c0.2,0.6,0.3,1.4,0.4,2.3l-1,0.1
		c0-0.8-0.1-1.6-0.2-2.4L114.4,8.3z M114.8,4.7h1.8c-0.3-0.5-0.5-0.9-0.8-1.3C115.5,3.8,115.1,4.3,114.8,4.7z M116.6,8.1l0.8,0.1
		c0,0.7-0.1,1.4-0.3,2l-0.9-0.2C116.4,9.5,116.5,8.9,116.6,8.1z M117.6,4h1V3.4h-1c0.1,0.1,0.1,0.2,0.2,0.2L117.6,4z M117.6,5.4h3.4
		v2.2h-3.4V5.4z M119.9,6.7V6.3h-1.1v0.5H119.9z M123.7,2.1c0.3,0.5,0.6,0.9,0.8,1.3l-1.1,0.6c-0.2-0.6-0.4-1.1-0.7-1.5L123.7,2.1z"
		/>
	<path id="XMLID_3_" class="st0" d="M128.7,5.3l1.3,0.1c0,1.5-0.1,3-0.2,4.5c0.2-0.1,0.5-0.1,0.7-0.2v1.5c-1.4,0.5-3,0.9-4.8,1.3
		l-0.3-1.5c1-0.1,2-0.3,2.9-0.5C128.5,8.8,128.7,7.1,128.7,5.3z M128.5,1.8c0.1,0.6,0.2,1.2,0.3,1.8h1.7v1.3h-5.1V3.6h1.7
		C127.1,3,127,2.5,126.9,2L128.5,1.8z M127.2,5.6c0.3,1.1,0.5,2.5,0.7,4.1l-1.5,0.2c0-1.3-0.2-2.7-0.5-4.2L127.2,5.6z M132.2,1.8
		h1.5v1.8h2.7v1.4h-2.7v1.9h2.2v6h-1.5V12H132v0.8h-1.5v-6h1.7V1.8z M132,10.7h2.5V8.2H132V10.7z"/>
</g>
</svg>
