<?xml version="1.0" encoding="utf-8"?>
<!-- Generator: Adobe Illustrator 19.0.0, SVG Export Plug-In . SVG Version: 6.00 Build 0)  -->
<svg version="1.1" id="圖層_1" xmlns="http://www.w3.org/2000/svg" xmlns:xlink="http://www.w3.org/1999/xlink" x="0px" y="0px"
	 viewBox="0 0 22 22" style="enable-background:new 0 0 22 22;" xml:space="preserve">
<g>
	<path d="M15.8,6.7c0,1-0.3,1.9-0.9,2.6c-0.3,0.4-1,1-2,1.9c-1.4,1.2-2.1,2.2-2.1,3v1H7.4v-1.7c0-0.6,0.3-1.4,0.9-2.2
		c0.4-0.5,1-1.1,2-2c1.3-1.2,2-2.1,2-2.7c0-1-1.1-1.5-3.2-1.5c-0.8,0-2.1,0.2-3.7,0.7V2.5C6.8,2.2,8.1,2,9.4,2c1.7,0,3.2,0.3,4.3,1
		C15.1,3.9,15.8,5.1,15.8,6.7z M10.8,20.1H7.4v-3.4h3.4V20.1z"/>
</g>
</svg>
