<?xml version="1.0" encoding="utf-8"?>
<!-- Generator: Adobe Illustrator 19.0.0, SVG Export Plug-In . SVG Version: 6.00 Build 0)  -->
<svg version="1.1" id="圖層_1" xmlns="http://www.w3.org/2000/svg" xmlns:xlink="http://www.w3.org/1999/xlink" x="0px" y="0px"
	 viewBox="0 0 22 22" style="enable-background:new 0 0 22 22;" xml:space="preserve">
<style type="text/css">
	.st0{fill:#FFFFFF;}
</style>
<rect id="XMLID_14_" x="-6.6" y="-6.5" class="st0" width="35.3" height="35.3"/>
<g id="XMLID_10_">
	<path id="XMLID_11_" d="M17.8,6.7c0,1-0.3,1.9-0.9,2.6c-0.3,0.4-1,1-2,1.9c-1.4,1.2-2.1,2.2-2.1,3v1H9.4v-1.7
		c0-0.6,0.3-1.4,0.9-2.2c0.4-0.5,1-1.1,2-2c1.3-1.2,2-2.1,2-2.7c0-1-1.1-1.5-3.2-1.5c-0.8,0-2.1,0.2-3.7,0.7V2.5
		C8.8,2.2,10.1,2,11.4,2c1.7,0,3.2,0.3,4.3,1C17.1,3.9,17.8,5.1,17.8,6.7z M12.8,20.1H9.4v-3.4h3.4V20.1z"/>
</g>
</svg>
