<?xml version="1.0" encoding="utf-8"?>
<!-- Generator: Adobe Illustrator 19.1.1, SVG Export Plug-In . SVG Version: 6.00 Build 0)  -->
<svg version="1.1" id="圖層_1" xmlns="http://www.w3.org/2000/svg" xmlns:xlink="http://www.w3.org/1999/xlink" x="0px" y="0px"
	 viewBox="0 0 10 10" style="enable-background:new 0 0 10 10;" xml:space="preserve">
<style type="text/css">
	.st0{fill:#808080;}
</style>
<g>
	<g>
		<g>
			<path class="st0" d="M4.7,0.8c-0.8-0.8-2-1-3-0.5l1.8,1.8L2.1,3.4L0.3,1.6c-0.5,1-0.3,2.2,0.5,3c1.1,1.1,2.8,1,3.9-0.1
				C5.7,3.6,5.7,1.8,4.7,0.8z"/>
		</g>
		<g>
			<path class="st0" d="M8.8,7.4C8.4,7.8,8,8.2,7.6,8.6C5.7,7.1,4.2,5.4,2.7,3.9c0.4-0.4,0.8-0.8,1.2-1.1C5.4,4.3,6.9,5.9,8.8,7.4z"
				/>
		</g>
		<ellipse transform="matrix(0.7071 -0.7071 0.7071 0.7071 -3.3248 7.9671)" class="st0" cx="8" cy="8" rx="1.2" ry="1.3"/>
	</g>
</g>
</svg>
