<svg id="圖層_1" xmlns="http://www.w3.org/2000/svg" viewBox="0 0 310 54"><style>.st0{fill:#ff6900}.st1,.st2{stroke:#000;stroke-miterlimit:10}.st2{stroke:#ff6900}.st2,.st3{fill:#fff}</style><g id="XMLID_34_"><path id="XMLID_66_" d="M4 41.2l4.6-25.8h8l-4.5 25.8z"/><path id="XMLID_64_" d="M21.8 23.6c0-3.2-.1-6-.2-8.2h7l.4 3.5c1.1-1.6 3.7-4.1 8-4.1 5.3 0 9.2 3.5 9.2 11.1v15.3h-8V26.9c0-3.3-1.2-5.6-4.1-5.6-2.2 0-3.5 1.5-4.1 3-.2.5-.3 1.3-.3 2v14.9h-8V23.6z"/><path id="XMLID_62_" d="M53.6 41.2V21.3h-3.4v-5.9h3.4v-1c0-3.1 1-6.5 3.3-8.7 2-1.9 4.8-2.6 7.1-2.6 1.8 0 3.4.3 4.4.6l-.8 6.1c-.7-.3-1.4-.4-2.3-.4-2.6 0-3.6 1.9-3.6 4.6v1.3h5.2v5.9h-5.1v19.9h-8.2z"/><path id="XMLID_59_" d="M95.6 28.2c0 9.7-7.4 13.5-13.8 13.5-7.3 0-13.1-5-13.1-13.5 0-8.7 6.2-13.5 13.8-13.5 7.7.1 13.1 5.2 13.1 13.5zm-18.6.1c0 4.1 1.6 7.7 5.2 7.7 3.5 0 5.2-3.5 5.2-7.7 0-3.7-1.2-7.9-5.2-7.9S77 24.7 77 28.3z"/><path id="XMLID_57_" class="st0" d="M101.7 26.6c0-4.8-.2-8.8-.3-12.2h10l.5 5.2h.2c1.6-2.4 5-6 11.6-6 4.9 0 8.8 2.5 10.5 6.5h.2c1.4-2 3.1-3.5 4.9-4.6 2.1-1.2 4.4-1.9 7.3-1.9 7.3 0 12.9 5.2 12.9 16.5v22.5h-11.6V31.9c0-5.5-1.8-8.7-5.6-8.7-2.7 0-4.7 1.9-5.5 4.1-.3.9-.5 2.1-.5 3v22.3h-11.6V31.2c0-4.8-1.7-8.1-5.5-8.1-3 0-4.8 2.3-5.5 4.3-.4.9-.5 2-.5 3v22.2h-11.6v-26z"/><path id="XMLID_54_" class="st0" d="M178 37.3c.4 4.9 5.2 7.3 10.8 7.3 4.1 0 7.3-.5 10.5-1.6l1.6 8c-3.9 1.6-8.7 2.4-13.8 2.4-13 0-20.4-7.6-20.4-19.5 0-9.7 6-20.4 19.3-20.4 12.3 0 17 9.6 17 19 0 2-.2 3.8-.4 4.7H178zm13.9-8.1c0-2.9-1.2-7.7-6.7-7.7-5 0-7 4.5-7.3 7.7h14z"/><path id="XMLID_52_" class="st0" d="M223.3 3.5v10.9h8.5v8.7h-8.5V37c0 4.6 1.1 6.7 4.7 6.7 1.5 0 2.7-.2 3.5-.3l.1 9c-1.6.6-4.4 1.1-7.7 1.1-3.8 0-7-1.4-8.9-3.4-2.2-2.3-3.3-5.9-3.3-11.3V23.2h-5.1v-8.7h5.1V6.2l11.6-2.7z"/><path id="XMLID_50_" class="st0" d="M238.7 27c0-5.6-.2-9.3-.3-12.6h10.2l.4 7h.3c2-5.5 6.6-7.9 10.3-7.9 1.1 0 1.6 0 2.5.2V25c-.9-.2-1.9-.4-3.2-.4-4.4 0-7.3 2.3-8.1 6-.2.8-.2 1.7-.2 2.7v19.4h-11.9V27z"/><path id="XMLID_47_" class="st0" d="M305.4 33.5c0 14.3-10.9 20-20.4 20-10.8 0-19.4-7.4-19.4-19.9 0-12.9 9.1-20 20.4-20 11.4 0 19.4 7.6 19.4 19.9zm-27.6.2c0 6.1 2.4 11.3 7.7 11.3 5.2 0 7.7-5.2 7.7-11.3 0-5.5-1.8-11.6-7.7-11.6-5.8-.1-7.7 6.2-7.7 11.6z"/><path id="XMLID_46_" class="st1" d="M3.4 44.6h23.4v8H3.4z"/><path id="XMLID_45_" class="st2" d="M26.7 44.6h23.4v8H26.7z"/><path id="XMLID_44_" class="st1" d="M50.1 44.6h23.4v8H50.1z"/><path id="XMLID_43_" class="st2" d="M73.5 44.6h23.4v8H73.5z"/><g id="XMLID_35_"><g id="XMLID_38_"><circle id="XMLID_42_" class="st3" cx="13" cy="11.3" r="7"/><path id="XMLID_39_" d="M13 19.4c-4.5 0-8.1-3.7-8.1-8.1S8.6 3.1 13 3.1c4.5 0 8.1 3.7 8.1 8.1s-3.6 8.2-8.1 8.2zm0-14c-3.2 0-5.9 2.6-5.9 5.9s2.6 5.9 5.9 5.9c3.2 0 5.9-2.6 5.9-5.9S16.3 5.4 13 5.4z"/></g><g id="XMLID_36_"><circle id="XMLID_37_" cx="13" cy="11.3" r="4.3"/></g></g></g><g id="XMLID_2_"><path id="XMLID_26_" d="M80.5 4l.6 1.1c-.9.5-1.9 1-3.2 1.3l-.7-1.3c1.3-.2 2.4-.6 3.3-1.1zm2-2.2l1.4.2c-.1.2-.2.3-.3.5h4.5c-.1 1-.3 1.8-.6 2.6l-1.4-.7c.2-.2.3-.5.4-.8h-1.1c-.1.3-.3.5-.4.7 1.1.4 2.3.9 3.4 1.5l-1 1.2c-.1-.1-.2-.1-.3-.2v4.3h-1.8c.9.1 2 .3 3.2.5l-.5 1.3c-1.4-.4-2.8-.6-4.1-.8l.4-.9h-2.9l.4.9c-1 .4-2.3.7-4 .8l-.4-1.3c1.1 0 2.3-.2 3.5-.4h-2.2V6.3h2.6l-.4-.8c.9-.2 1.7-.5 2.2-1 .3-.2.6-.5.8-.9h-1.1c-.3.4-.7.7-1 1l-1.3-.9c.9-.4 1.5-1.1 2-1.9zm-4.1.2c.7.1 1.5.4 2.5.7L80.2 4c-.9-.4-1.8-.8-2.6-1l.8-1zm1.8 5.8h5.2v-.5h-5.2v.5zm0 1.2h5.2v-.5h-5.2V9zm5.3 1.2v-.5h-5.2v.4h5.2zm-1.3-4.9l-.3.3c-.3.3-.7.5-1.1.7h3.5c-.7-.3-1.4-.7-2.1-1z"/><path id="XMLID_20_" d="M93.9 2.4h5.2C99 5.5 99 7.3 99 7.7c0 2.1.1 3.2.3 3.2 0 0 .1 0 .1-.1.1-.1.1-.8.2-2.1l1 .6c-.1 1.2-.3 2.2-.6 2.7-.2.4-.5.7-.8.7-.4 0-.8-.2-1-.7-.4-.5-.6-2-.6-4.4V3.8h-1.2v2.7h1v1.4h-1v4.8H95V7.9h-1V6.5h1V3.8h-.8v.6h-4.7V3.1H91c-.1-.4-.2-.7-.3-1l1.8-.1c.1.4.1.8.2 1.2H94v-.8zm-4.1 2.5h3.8v1.2h-3.8V4.9zm0 1.8h3.8v1.2h-3.8V6.7zm3.9 1.8v4.1h-1.4v-.5h-1v.6h-1.4V8.5h3.8zM91.2 11h1V9.7h-1V11z"/><path id="XMLID_18_" class="st0" d="M101.4 4.7h1.1V2h1.4v2.6h1v1.2l.6-.2V3h1.5v2.3l1-.3V1.8h1.4v2.8l2.7-.8V7c0 1-.1 1.7-.4 1.9-.3.3-.7.4-1.3.4h-.7l-.2-1.5h.8c.1 0 .1 0 .2-.1s.1-.4.1-1V5.6l-1.2.4v4.2H108V6.4l-1 .3v4.2c0 .3.1.4.3.4h3c.2 0 .3-.1.4-.2.1-.1.1-.6.2-1.6l1.4.3c-.1 1.2-.3 2-.5 2.4-.2.3-.6.4-1.1.4h-4.1c-.7 0-1-.5-1-1.4V7.1l-.8.2-.1-1.2h-.7v3c.4-.1.7-.3 1-.4v1.6c-1 .5-2.1.8-3.4 1.2l-.3-1.7 1.2-.3V6.1h-1.1V4.7z"/><path id="XMLID_9_" class="st0" d="M115.8 1.8h.4c.5.5 1 .9 1.4 1.4v-.8h1.1v-.6h1.3v.6h1.1v1H120V4h1.4V1.9h1.3V4h1.8v1.2h-1.8c0 1.1.1 2 .1 2.7.2-.7.4-1.6.5-2.5l1.1.6c-.2 1.3-.6 2.6-1.1 3.7-.1.1-.1.2-.2.4.1.6.2 1 .3 1 0 0 .1-.2.1-.5l.1-.8 1.1.7c-.2 1-.4 1.7-.7 2.1-.2.3-.3.4-.6.4s-.6-.3-.9-.8l-.3-.6c-.3.4-.6.8-.9 1.1l-.9-.7c-.8.2-1.8.3-2.7.4l-.2-1.3c.5 0 .9-.1 1.3-.1v-.6h-1v-1h1v-.5h-1.2v-1h3.5v1H120v.4h1v1h-1v.5c.4-.1.7-.1 1-.2v.3c.3-.3.5-.6.7-1 0-.2-.1-.3-.1-.5-.2-.9-.3-2.4-.3-4.3h-4v-.8l-.3.4h.1v1.2h-.9v.8h1.3v1.2h-1.3v2.9c.4-.1.8-.3 1.2-.4v1.3c-1.1.4-2.3.8-3.7 1l-.2-1.4c.5 0 1-.1 1.5-.2V7.9h-1.4V6.7h1.4v-.8h-.7v-.5c-.1.1-.3.2-.4.4l-.5-1.8c.7-.6 1.3-1.3 1.8-2.2h.6zm-1.4 6.5c.2.6.3 1.4.4 2.3l-1 .1c0-.8-.1-1.6-.2-2.4h.8zm.4-3.6h1.8c-.3-.5-.5-.9-.8-1.3-.3.4-.7.9-1 1.3zm1.8 3.4l.8.1c0 .7-.1 1.4-.3 2l-.9-.2c.2-.5.3-1.1.4-1.9zm1-4.1h1v-.6h-1c.1.1.1.2.2.2l-.2.4zm0 1.4h3.4v2.2h-3.4V5.4zm2.3 1.3v-.4h-1.1v.5h1.1zm3.8-4.6c.3.5.6.9.8 1.3l-1.1.6c-.2-.6-.4-1.1-.7-1.5l1-.4z"/><path id="XMLID_3_" class="st0" d="M128.7 5.3l1.3.1c0 1.5-.1 3-.2 4.5.2-.1.5-.1.7-.2v1.5c-1.4.5-3 .9-4.8 1.3l-.3-1.5c1-.1 2-.3 2.9-.5.2-1.7.4-3.4.4-5.2zm-.2-3.5l.3 1.8h1.7v1.3h-5.1V3.6h1.7c0-.6-.1-1.1-.2-1.6l1.6-.2zm-1.3 3.8c.3 1.1.5 2.5.7 4.1l-1.5.2c0-1.3-.2-2.7-.5-4.2l1.3-.1zm5-3.8h1.5v1.8h2.7V5h-2.7v1.9h2.2v6h-1.5V12H132v.8h-1.5v-6h1.7v-5zm-.2 8.9h2.5V8.2H132v2.5z"/></g></svg>